<svg xmlns="http://www.w3.org/2000/svg" version="1.1" xmlns:xlink="http://www.w3.org/1999/xlink" xmlns:svgjs="http://svgjs.dev/svgjs" width="1500" height="439" viewBox="0 0 1500 439"><g transform="matrix(1,0,0,1,-0.9090909090911055,-0.49501011656460037)"><svg viewBox="0 0 396 116" data-background-color="#632240" preserveAspectRatio="xMidYMid meet" height="439" width="1500" xmlns="http://www.w3.org/2000/svg" xmlns:xlink="http://www.w3.org/1999/xlink"><g id="tight-bounds" transform="matrix(1,0,0,1,0.24000000000003752,0.13079993968449344)"><svg viewBox="0 0 395.5199999999999 115.73840012063104" height="115.73840012063104" width="395.5199999999999"><g><svg viewBox="0 0 608.5265125535223 178.06908625083884" height="115.73840012063104" width="395.5199999999999"><g transform="matrix(1,0,0,1,0,52.03647226827657)"><svg viewBox="0 0 395.52 73.9961417142857" height="73.9961417142857" width="395.52"><g id="textblocktransform"><svg viewBox="0 0 395.52 73.9961417142857" height="73.9961417142857" width="395.52" id="textblock"><g><svg viewBox="0 0 395.52 73.9961417142857" height="73.9961417142857" width="395.52"><g transform="matrix(1,0,0,1,0,0)"><svg width="395.52" viewBox="4.5 -40.5 218.74 40.93" height="73.9961417142857" data-palette-color="#fed8e5"><g class="wordmark-text-0" data-fill-palette-color="primary" id="text-0"><path d="M4.5-33.5L5-37.5 27.5-37.5 27.5-33.5 18.55-33.5 18.55-4 28-4 27.5 0 5 0 5-4 13.9-4 13.9-33.5 4.5-33.5ZM45.92-4L60-4 60.5 0 37.52 0 37.02-1.25 49.6-20.65 54.4-24.5 48.27-23.5 39.2-23.5 38.7-27.5 58.3-27.5 58.8-26.28 46.57-7 41.8-3 45.92-4ZM92.25-4.5L92.75 0 87.75 0 87.75-4.05 85.4-1.25Q84.97-0.93 84.31-0.63 83.65-0.33 82.9-0.09 82.15 0.15 81.37 0.29 80.59 0.43 79.9 0.43L79.9 0.43Q78.02 0.43 76.12-0.16 74.22-0.75 72.7-1.89 71.17-3.03 70.21-4.71 69.25-6.4 69.25-8.6L69.25-8.6Q69.25-10.93 70.23-12.61 71.22-14.3 72.82-15.4 74.42-16.5 76.47-17.03 78.52-17.55 80.62-17.55L80.62-17.55Q83-17.55 84.75-17.29 86.5-17.03 87.75-16.55L87.75-16.55 87.75-17.63Q87.75-19.1 87.38-20.28 87.02-21.45 86.25-22.26 85.47-23.08 84.26-23.5 83.05-23.93 81.37-23.93L81.37-23.93Q79.8-23.93 78.66-23.74 77.52-23.55 76.55-23.33L76.55-23.33Q75.97-23.2 75.45-23.05 74.92-22.9 74.42-22.75L74.42-22.75 72.62-26.1Q73.67-26.58 75.12-27L75.12-27Q76.32-27.35 77.86-27.64 79.4-27.93 81.62-27.93L81.62-27.93Q84.5-27.93 86.52-27.15 88.55-26.38 89.82-24.98 91.09-23.58 91.67-21.61 92.25-19.65 92.25-17.25L92.25-17.25 92.25-4.5ZM87.75-6.85L87.75-13.13 86.25-13.33Q85.9-13.35 85.32-13.4 84.75-13.45 84.07-13.48L84.07-13.48 82.75-13.53Q82.09-13.55 81.62-13.55L81.62-13.55Q80.22-13.55 78.87-13.3 77.52-13.05 76.46-12.48 75.4-11.9 74.73-10.96 74.07-10.03 74.07-8.63L74.07-8.63Q74.07-7.5 74.57-6.58 75.07-5.65 75.91-4.98 76.75-4.3 77.83-3.94 78.92-3.58 80.09-3.58L80.09-3.58Q82.42-3.58 84.27-4.46 86.12-5.35 87.75-6.85L87.75-6.85ZM107.27 0L102.77 0 102.77-35.5 102.27-40 107.27-40.5 107.27-17.25 117.02-27.5 122.74-27.5 113.24-17.25 108.79-15.68 113.24-14.18 125.52 0 119.62 0 107.27-13.93 107.27 0ZM157.24-4.5L157.74 0 152.74 0 152.74-4.05 150.39-1.25Q149.97-0.93 149.3-0.63 148.64-0.33 147.89-0.09 147.14 0.15 146.37 0.29 145.59 0.43 144.89 0.43L144.89 0.43Q143.02 0.43 141.12-0.16 139.22-0.75 137.69-1.89 136.17-3.03 135.2-4.71 134.24-6.4 134.24-8.6L134.24-8.6Q134.24-10.93 135.23-12.61 136.22-14.3 137.81-15.4 139.42-16.5 141.47-17.03 143.52-17.55 145.62-17.55L145.62-17.55Q147.99-17.55 149.74-17.29 151.49-17.03 152.74-16.55L152.74-16.55 152.74-17.63Q152.74-19.1 152.38-20.28 152.02-21.45 151.24-22.26 150.47-23.08 149.25-23.5 148.04-23.93 146.37-23.93L146.37-23.93Q144.79-23.93 143.65-23.74 142.52-23.55 141.54-23.33L141.54-23.33Q140.97-23.2 140.44-23.05 139.92-22.9 139.42-22.75L139.42-22.75 137.62-26.1Q138.67-26.58 140.12-27L140.12-27Q141.31-27.35 142.85-27.64 144.39-27.93 146.62-27.93L146.62-27.93Q149.49-27.93 151.52-27.15 153.54-26.38 154.81-24.98 156.09-23.58 156.67-21.61 157.24-19.65 157.24-17.25L157.24-17.25 157.24-4.5ZM152.74-6.85L152.74-13.13 151.24-13.33Q150.89-13.35 150.31-13.4 149.74-13.45 149.06-13.48L149.06-13.48 147.74-13.53Q147.09-13.55 146.62-13.55L146.62-13.55Q145.22-13.55 143.87-13.3 142.52-13.05 141.45-12.48 140.39-11.9 139.73-10.96 139.06-10.03 139.06-8.63L139.06-8.63Q139.06-7.5 139.56-6.58 140.06-5.65 140.9-4.98 141.74-4.3 142.83-3.94 143.92-3.58 145.09-3.58L145.09-3.58Q147.42-3.58 149.27-4.46 151.12-5.35 152.74-6.85L152.74-6.85ZM172.26-20.83L172.26 0 167.76 0 167.76-35 167.26-40 172.26-40.5 172.26-23.75 174.49-26.63Q175.46-27.18 177.29-27.55 179.11-27.93 181.99-27.93L181.99-27.93Q185.76-27.93 187.75-25.44 189.74-22.95 189.74-18.25L189.74-18.25 189.74 0 184.99 0 184.99-17.73Q184.99-19.4 184.7-20.58 184.41-21.75 183.89-22.5 183.36-23.25 182.59-23.59 181.81-23.93 180.84-23.93L180.84-23.93Q179.34-23.93 177.98-23.63 176.61-23.33 175.49-22.86 174.36-22.4 173.53-21.85 172.69-21.3 172.26-20.83L172.26-20.83ZM204.76-28L204.76-22.38 207.04-26.33Q207.74-26.85 208.64-27.18 209.54-27.5 210.49-27.66 211.44-27.83 212.4-27.88 213.36-27.93 214.24-27.93L214.24-27.93Q216.11-27.93 217.44-27.76 218.76-27.6 219.67-27.35 220.59-27.1 221.14-26.84 221.69-26.58 221.99-26.38L221.99-26.38 223.24-19.25 219.49-18.75 218.24-23.2Q218.04-23.28 217.61-23.35 217.19-23.43 216.64-23.5 216.09-23.58 215.47-23.63 214.86-23.68 214.31-23.68L214.31-23.68Q212.61-23.68 211.16-23.29 209.71-22.9 208.51-22.23 207.31-21.55 206.37-20.65 205.44-19.75 204.76-18.75L204.76-18.75 204.76 0 200.26 0 200.26-27.5 204.76-28Z" fill="#fed8e5" data-fill-palette-color="primary"></path></g></svg></g></svg></g></svg></g></svg></g><g transform="matrix(1,0,0,1,430.4574263026834,0)"><svg viewBox="0 0 178.06908625083884 178.06908625083884" height="178.06908625083884" width="178.06908625083884"><g><svg></svg></g><g id="icon-0"><svg viewBox="0 0 178.06908625083884 178.06908625083884" height="178.06908625083884" width="178.06908625083884"><g><path d="M0 89.035c0-49.172 39.862-89.035 89.035-89.035 49.172 0 89.035 39.862 89.034 89.035 0 49.172-39.862 89.035-89.034 89.034-49.172 0-89.035-39.862-89.035-89.034zM89.035 171.396c45.487 0 82.361-36.874 82.361-82.361 0-45.487-36.874-82.361-82.361-82.362-45.487 0-82.361 36.874-82.362 82.362 0 45.487 36.874 82.361 82.362 82.361z" data-fill-palette-color="accent" fill="#fed8e5" stroke="transparent"></path></g><g transform="matrix(1,0,0,1,45.22437406642639,39.4381253227858)"><svg viewBox="0 0 87.62033811798605 99.19283560526723" height="99.19283560526723" width="87.62033811798605"><g><svg xmlns="http://www.w3.org/2000/svg" xmlns:xlink="http://www.w3.org/1999/xlink" version="1.1" x="0" y="0" viewBox="3.5 0 53 60" style="enable-background:new 0 0 60 60;" xml:space="preserve" height="99.19283560526723" width="87.62033811798605" class="icon-dxe-0" data-fill-palette-color="accent" id="dxe-0"><g fill="#fed8e5" data-fill-palette-color="accent"><path d="M55.5 60H22.5C18.64 60 15.5 56.859 15.5 53V7C15.5 4.243 13.257 2 10.5 2A1 1 0 1 1 10.5 0H49.5C53.359 0 56.5 3.141 56.5 7V59A1 1 0 0 1 55.5 60M15.395 2A6.98 6.98 0 0 1 17.5 7V53C17.5 55.757 19.743 58 22.5 58H54.5V7C54.5 4.243 52.257 2 49.5 2z" fill="#fed8e5" data-fill-palette-color="accent"></path><path d="M16.5 54H10.5C6.64 54 3.5 50.859 3.5 47V7C3.5 3.141 6.64 0 10.5 0H23.5A1 1 0 1 1 23.5 2H10.5C7.743 2 5.5 4.243 5.5 7V47C5.5 49.757 7.743 52 10.5 52H16.5A1 1 0 1 1 16.5 54" fill="#fed8e5" data-fill-palette-color="accent"></path><path d="M49.5 46H22.5A1 1 0 1 1 22.5 44H49.5A1 1 0 1 1 49.5 46" fill="#fed8e5" data-fill-palette-color="accent"></path><path d="M49.5 40H22.5A1 1 0 1 1 22.5 38H49.5A1 1 0 1 1 49.5 40" fill="#fed8e5" data-fill-palette-color="accent"></path><path d="M49.5 30H22.5A1 1 0 1 1 22.5 28H49.5A1 1 0 1 1 49.5 30" fill="#fed8e5" data-fill-palette-color="accent"></path><path d="M49.5 26H22.5A1 1 0 1 1 22.5 24H49.5A1 1 0 1 1 49.5 26" fill="#fed8e5" data-fill-palette-color="accent"></path><path d="M49.5 22H22.5A1 1 0 1 1 22.5 20H49.5A1 1 0 1 1 49.5 22" fill="#fed8e5" data-fill-palette-color="accent"></path><path d="M49.5 18H36.5A1 1 0 1 1 36.5 16H49.5A1 1 0 1 1 49.5 18" fill="#fed8e5" data-fill-palette-color="accent"></path><path d="M49.5 14H36.5A1 1 0 1 1 36.5 12H49.5A1 1 0 1 1 49.5 14" fill="#fed8e5" data-fill-palette-color="accent"></path><path d="M49.5 8H36.5A1 1 0 1 1 36.5 6H49.5A1 1 0 1 1 49.5 8" fill="#fed8e5" data-fill-palette-color="accent"></path><path d="M49.5 50H22.5A1 1 0 1 1 22.5 48H49.5A1 1 0 1 1 49.5 50" fill="#fed8e5" data-fill-palette-color="accent"></path><path d="M32.5 18H22.5A1 1 0 0 1 21.5 17V7A1 1 0 0 1 22.5 6H32.5A1 1 0 0 1 33.5 7V17A1 1 0 0 1 32.5 18M23.5 16H31.5V8H23.5z" fill="#fed8e5" data-fill-palette-color="accent"></path></g></svg></g></svg></g></svg></g></svg></g></svg></g><defs></defs></svg><rect width="395.5199999999999" height="115.73840012063104" fill="none" stroke="none" visibility="hidden"></rect></g></svg></g></svg>